<svg xmlns="http://www.w3.org/2000/svg" width="198" height="28" viewBox="0 0 198 28" fill="none">
  <g clip-path="url(#clip0_103_9186)">
    <path d="M32.0002 27.1957V0H49.4811V1.94903H51.415V3.88295H53.364V12.6158H51.415V14.5648H49.4811V16.4987H51.415V18.4327H53.364V27.1655H49.4659V20.3666H47.532V18.4327H45.5981V16.4987H35.8832V27.1806H32.0002V27.1957ZM47.532 12.6309V10.697H49.4659V5.83197H47.532V3.89805H35.8681V12.6309H47.532Z" fill="white"/>
    <path d="M57.2468 27.1957V0H76.6616V3.89805H61.1298V10.697H74.7276V14.595H61.1298V23.3279H76.6616V27.2108H57.2468V27.1957Z" fill="white"/>
    <path d="M80.5444 27.1957V0H99.9592V3.89805H84.4274V11.6639H98.0252V15.562H84.4274V27.2108H80.5444V27.1957Z" fill="white"/>
    <path d="M103.827 27.1957V0H121.308V1.94903H123.242V3.88295H125.191V12.6158H123.242V14.5648H121.308V16.4987H123.242V18.4327H125.191V27.1655H121.293V20.3666H119.359V18.4327H117.425V16.4987H107.71V27.1806H103.827V27.1957ZM119.359 12.6309V10.697H121.293V5.83197H119.359V3.89805H107.695V12.6309H119.359Z" fill="white"/>
    <path d="M129.074 27.1957V21.3789H131.008V15.5469H132.942V9.71492H134.876V3.88295H136.825V0H142.657V3.89805H144.59V9.73003H146.524V15.562H148.458V21.394H150.407V27.2108H146.509V21.394H132.911V27.2108H129.028L129.074 27.1957ZM144.606 17.4959V15.562H142.672V9.73003H140.723V5.83197H138.789V9.73003H136.855V15.562H134.906V17.4959H144.621H144.606Z" fill="white"/>
    <path d="M159.171 27.1957V25.2618H157.237V23.3279H155.303V21.394H153.369V5.83197H155.303V3.89805H157.237V1.96414H159.171V0H170.834V1.94903H172.768V3.88295H174.717V5.81686H176.651V9.71492H172.753V7.781H170.819V5.83197H168.885V3.89805H161.12V5.83197H159.171V7.781H157.237V19.4298H159.171V21.3789H161.12V23.3128H168.885V21.3789H170.819V19.4298H172.753V17.4959H176.651V21.394H174.717V23.3279H172.768V25.2618H170.834V27.1957H159.171Z" fill="white"/>
    <path d="M186.366 27.1957V3.89805H178.6V0H198.015V3.89805H190.249V27.1957H186.366Z" fill="white"/>
    <path d="M7.7809 19.5054H11.679V15.6073H7.7809V19.5054Z" fill="white"/>
    <path d="M3.88271 23.3882H7.78076L7.78076 19.4901H3.88271L3.88271 23.3882Z" fill="white"/>
    <path d="M0.000139475 27.2864H3.89819L3.89819 23.3883H0.000139475L0.000139475 27.2864Z" fill="white"/>
    <path d="M15.5619 11.7244H19.46V7.82631H15.5619V11.7244Z" fill="white"/>
    <path d="M19.445 7.82642L23.343 7.82642V3.92836L19.445 3.92836V7.82642Z" fill="white"/>
    <path d="M11.664 15.6074H15.562V11.7094H11.664V15.6074Z" fill="white"/>
    <path d="M7.7809 11.7244H11.679V7.82631H7.7809V11.7244Z" fill="white"/>
    <path d="M11.664 7.82642L15.562 7.82642V3.92836L11.664 3.92836V7.82642Z" fill="white"/>
    <path d="M3.88271 7.82642L7.78076 7.82642L7.78076 3.92836L3.88271 3.92836L3.88271 7.82642Z" fill="white"/>
    <path d="M0.000139475 3.94336L3.89819 3.94336L3.89819 0.0453055L0.000139475 0.0453055L0.000139475 3.94336Z" fill="white"/>
    <path d="M7.7809 4.06421L11.679 4.06421V0.166155L7.7809 0.166155V4.06421Z" fill="white"/>
    <path d="M15.5619 4.06421L19.46 4.06421V0.166155L15.5619 0.166155V4.06421Z" fill="white"/>
    <path d="M3.88271 15.6074H7.78076L7.78076 11.7094H3.88271L3.88271 15.6074Z" fill="white"/>
    <path d="M0.000139475 19.5054H3.89819L3.89819 15.6073H0.000139475L0.000139475 19.5054Z" fill="white"/>
    <path d="M0.000139475 11.7244H3.89819L3.89819 7.82631H0.000139475L0.000139475 11.7244Z" fill="white"/>
  </g>
  <defs>
    <clipPath id="clip0_103_9186">
      <rect width="198" height="27.2864" fill="white"/>
    </clipPath>
  </defs>
</svg>