<svg xmlns="http://www.w3.org/2000/svg" width="198" height="28" viewBox="0 0 198 28" fill="none">
  <g clip-path="url(#clip0_108_9969)">
    <path d="M32.0002 27.5527V0.356934H49.4811V2.30596H51.415V4.23988H53.364V12.9727H51.415V14.9218H49.4811V16.8557H51.415V18.7896H53.364V27.5224H49.4659V20.7235H47.532V18.7896H45.5981V16.8557H35.8832V27.5375H32.0002V27.5527ZM47.532 12.9878V11.0539H49.4659V6.18891H47.532V4.25499H35.8681V12.9878H47.532Z" fill="black"/>
    <path d="M57.2468 27.5527V0.356934H76.6616V4.25499H61.1298V11.0539H74.7276V14.952H61.1298V23.6848H76.6616V27.5678H57.2468V27.5527Z" fill="black"/>
    <path d="M80.5444 27.5527V0.356934H99.9592V4.25499H84.4274V12.0209H98.0252V15.9189H84.4274V27.5678H80.5444V27.5527Z" fill="black"/>
    <path d="M103.827 27.5527V0.356934H121.308V2.30596H123.242V4.23988H125.191V12.9727H123.242V14.9218H121.308V16.8557H123.242V18.7896H125.191V27.5224H121.293V20.7235H119.359V18.7896H117.425V16.8557H107.71V27.5375H103.827V27.5527ZM119.359 12.9878V11.0539H121.293V6.18891H119.359V4.25499H107.695V12.9878H119.359Z" fill="black"/>
    <path d="M129.074 27.5527V21.7358H131.008V15.9038H132.942V10.0719H134.876V4.23988H136.825V0.356934H142.657V4.25499H144.591V10.087H146.524V15.9189H148.458V21.7509H150.407V27.5678H146.509V21.7509H132.912V27.5678H129.029L129.074 27.5527ZM144.606 17.8528V15.9189H142.672V10.087H140.723V6.18891H138.789V10.087H136.855V15.9189H134.906V17.8528H144.621H144.606Z" fill="black"/>
    <path d="M159.171 27.5527V25.6187H157.237V23.6848H155.303V21.7509H153.369V6.18891H155.303V4.25499H157.237V2.32107H159.171V0.356934H170.835V2.30596H172.769V4.23988H174.718V6.1738H176.651V10.0719H172.753V8.13793H170.819V6.18891H168.886V4.25499H161.12V6.18891H159.171V8.13793H157.237V19.7868H159.171V21.7358H161.12V23.6697H168.886V21.7358H170.819V19.7868H172.753V17.8528H176.651V21.7509H174.718V23.6848H172.769V25.6187H170.835V27.5527H159.171Z" fill="black"/>
    <path d="M186.366 27.5527V4.25499H178.6V0.356934H198.015V4.25499H190.249V27.5527H186.366Z" fill="black"/>
    <path d="M7.7809 19.8623H11.679V15.9643H7.7809V19.8623Z" fill="black"/>
    <path d="M3.88271 23.7451H7.78076L7.78076 19.8471H3.88271L3.88271 23.7451Z" fill="black"/>
    <path d="M0.000139475 27.6433H3.89819L3.89819 23.7453H0.000139475L0.000139475 27.6433Z" fill="black"/>
    <path d="M15.5619 12.0813H19.46V8.18324H15.5619V12.0813Z" fill="black"/>
    <path d="M19.445 8.18335H23.343V4.2853H19.445V8.18335Z" fill="black"/>
    <path d="M11.664 15.9644H15.562V12.0663H11.664V15.9644Z" fill="black"/>
    <path d="M7.7809 12.0813H11.679V8.18324H7.7809V12.0813Z" fill="black"/>
    <path d="M11.664 8.18335H15.562V4.2853H11.664V8.18335Z" fill="black"/>
    <path d="M3.88271 8.18335H7.78076L7.78076 4.2853H3.88271L3.88271 8.18335Z" fill="black"/>
    <path d="M0.000139475 4.30029L3.89819 4.30029L3.89819 0.402239L0.000139475 0.402239L0.000139475 4.30029Z" fill="black"/>
    <path d="M7.7809 4.42114L11.679 4.42114V0.523088L7.7809 0.523088V4.42114Z" fill="black"/>
    <path d="M15.5619 4.42114L19.46 4.42114V0.523088L15.5619 0.523088V4.42114Z" fill="black"/>
    <path d="M3.88271 15.9644H7.78076L7.78076 12.0663H3.88271L3.88271 15.9644Z" fill="black"/>
    <path d="M0.000139475 19.8623H3.89819L3.89819 15.9643H0.000139475L0.000139475 19.8623Z" fill="black"/>
    <path d="M0.000139475 12.0813H3.89819L3.89819 8.18324H0.000139475L0.000139475 12.0813Z" fill="black"/>
  </g>
  <defs>
    <clipPath id="clip0_108_9969">
      <rect width="198" height="27.2864" fill="white" transform="translate(0 0.356934)"/>
    </clipPath>
  </defs>
</svg>